<?xml version="1.0" encoding="utf-8"?>
<!-- Generator: Adobe Illustrator 17.1.0, SVG Export Plug-In . SVG Version: 6.00 Build 0)  -->
<!DOCTYPE svg PUBLIC "-//W3C//DTD SVG 1.1//EN" "http://www.w3.org/Graphics/SVG/1.1/DTD/svg11.dtd">
<svg version="1.1" xmlns="http://www.w3.org/2000/svg" xmlns:xlink="http://www.w3.org/1999/xlink" x="0px" y="0px"
	 viewBox="0 0 104 102.5" enable-background="new 0 0 104 102.5" xml:space="preserve">
	<g id="octocat">
		<path fill="#191111" d="M52.1,0C23.3,0,0,23.3,0,52c0,8.3,1.8,16.2,5.3,23.1C12,88.6,24,98.8,39,102.5V94v-2.7v-5.6
			c-1,0.3-2.6,0.5-3.8,0.5c-9.7,0.5-11.6-6.6-11.6-6.6c-2-5.2-5-6.6-5-6.6c-4.1-2.8,0.3-2.7,0.3-2.7c4.5,0.3,6.9,4.6,6.9,4.6
			c1.1,1.9,2.4,3.2,3.8,3.9c3.8,2.1,8.1,0.5,9.7-0.3c0.7-3.2,3.2-3.9,4-4.1c-11.5-1.2-23.9-5.4-23.9-25.4c0-5.6,2-10.2,5.2-13.7
			c-0.5-1.3-2.3-6.5,0.5-13.6c0,0,4.3-1.4,14.1,5.2c4.1-1.1,8.4-1.7,12.8-1.7c4.3,0.1,8.7,0.6,12.8,1.7c9.8-6.6,14-5.2,14-5.2
			c2.8,7.1,1.1,12.3,0.5,13.6c3.3,3.6,5.3,8.1,5.3,13.7c0,20-12.4,24.1-24,25.3c2.1,1.4,4.2,4.1,4.2,9.3v5.6V94v8.3
			c14-3.6,25.1-12.5,32-24.4c4.4-7.6,7-16.5,7-25.9C104,23.3,80.8,0,52.1,0z"/>
	</g>
</svg>
